<?xml version="1.0" encoding="UTF-8" standalone="no"?>
<!-- Created with Inkscape (http://www.inkscape.org/) -->

<svg
   xmlns:dc="http://purl.org/dc/elements/1.1/"
   xmlns:cc="http://creativecommons.org/ns#"
   xmlns:rdf="http://www.w3.org/1999/02/22-rdf-syntax-ns#"
   xmlns:svg="http://www.w3.org/2000/svg"
   xmlns="http://www.w3.org/2000/svg"
   xmlns:sodipodi="http://sodipodi.sourceforge.net/DTD/sodipodi-0.dtd"
   xmlns:inkscape="http://www.inkscape.org/namespaces/inkscape"
   version="1.1"
   id="svg869"
   width="85.599998mm"
   height="53.98mm"
   viewBox="0 0 323.52755 204.0189"
   sodipodi:docname="link.svg"
   inkscape:version="0.92.2 (5c3e80d, 2017-08-06)">
  <metadata
     id="metadata875">
    <rdf:RDF>
      <cc:Work
         rdf:about="">
        <dc:format>image/svg+xml</dc:format>
        <dc:type
           rdf:resource="http://purl.org/dc/dcmitype/StillImage" />
        <dc:title></dc:title>
      </cc:Work>
    </rdf:RDF>
  </metadata>
  <defs
     id="defs873" />
  <sodipodi:namedview
     pagecolor="#ffffff"
     bordercolor="#666666"
     borderopacity="1"
     objecttolerance="10"
     gridtolerance="10"
     guidetolerance="10"
     inkscape:pageopacity="0"
     inkscape:pageshadow="2"
     inkscape:window-width="1366"
     inkscape:window-height="739"
     id="namedview871"
     showgrid="false"
     fit-margin-top="0"
     fit-margin-left="0"
     fit-margin-right="0"
     fit-margin-bottom="0"
     inkscape:zoom="1.455"
     inkscape:cx="352.29737"
     inkscape:cy="67.217451"
     inkscape:window-x="0"
     inkscape:window-y="1"
     inkscape:window-maximized="1"
     inkscape:current-layer="svg869"
     units="mm" />
  <path
     style="fill:#000000;stroke-width:0.44227165"
     d="m 218.08155,174.58178 v -10.83566 h 10.61452 10.61452 v 10.83566 10.83565 h -10.61452 -10.61452 z m 18.57542,0 v -7.73976 h -7.9609 -7.9609 v 7.73976 7.73975 h 7.9609 7.9609 z m -12.82589,0 v -4.64386 h 4.64385 4.64386 v 4.64386 4.64385 h -4.64386 -4.64385 z m 18.57541,3.0959 v -7.73976 h 3.0959 3.0959 v 1.54796 c 0,1.47424 -0.0737,1.54794 -1.54795,1.54794 h -1.54795 v 3.09591 3.0959 h 1.54795 c 1.47424,0 1.54795,0.0737 1.54795,1.54795 0,1.47424 0.0737,1.54795 1.54795,1.54795 h 1.54795 v -3.0959 -3.0959 h 3.09591 3.0959 v 1.54795 c 0,1.47424 -0.0737,1.54795 -1.54796,1.54795 h -1.54794 v 3.0959 3.0959 h -6.19181 -6.1918 z m 21.6713,6.1918 c 0,-1.47423 -0.0737,-1.54795 -1.54794,-1.54795 -1.47423,0 -1.54795,-0.0737 -1.54795,-1.54795 0,-1.47424 0.0737,-1.54795 1.54795,-1.54795 h 1.54794 v -3.0959 -3.09591 h -1.54794 c -1.47423,0 -1.54795,-0.0737 -1.54795,-1.54794 0,-1.47424 -0.0737,-1.54796 -1.54796,-1.54796 -1.47423,0 -1.54794,0.0737 -1.54794,1.54796 0,1.47424 -0.0737,1.54794 -1.54796,1.54794 h -1.54794 v -3.0959 -3.0959 h 1.54794 c 1.47424,0 1.54796,-0.0737 1.54796,-1.54794 0,-1.47424 -0.0737,-1.54796 -1.54796,-1.54796 -1.47423,0 -1.54794,-0.0737 -1.54794,-1.54795 0,-1.47424 -0.0737,-1.54796 -1.54796,-1.54796 h -1.54795 v 3.09591 3.0959 h -4.64385 -4.64385 v -3.0959 -3.09591 h 4.64385 4.64385 v -4.64384 -4.64385 h 3.09591 3.0959 v 1.54794 c 0,1.47424 -0.0737,1.54796 -1.54796,1.54796 h -1.54794 v 3.0959 3.09589 h 4.64384 4.64385 v -1.54794 c 0,-1.47423 -0.0737,-1.54795 -1.54794,-1.54795 -1.47423,0 -1.54795,-0.0737 -1.54795,-1.54795 0,-1.47424 0.0737,-1.54795 1.54795,-1.54795 1.47423,0 1.54794,0.0737 1.54794,1.54795 0,1.47423 0.0737,1.54795 1.54796,1.54795 1.47423,0 1.54795,-0.0737 1.54795,-1.54795 0,-1.47424 0.0737,-1.54795 1.54795,-1.54795 1.47424,0 1.54795,-0.0737 1.54795,-1.54796 0,-1.47423 0.0737,-1.54794 1.54795,-1.54794 1.47424,0 1.54795,-0.0737 1.54795,-1.54796 v -1.54794 h -6.1918 -6.1918 v -1.54795 c 0,-1.47424 -0.0737,-1.54795 -1.54796,-1.54795 -1.47423,0 -1.54794,0.0737 -1.54794,1.54795 0,1.47423 -0.0737,1.54795 -1.54796,1.54795 h -1.54794 v -3.0959 -3.09591 h 1.54794 c 1.47424,0 1.54796,-0.0737 1.54796,-1.54796 0,-1.47423 -0.0737,-1.54794 -1.54796,-1.54794 -1.47423,0 -1.54794,-0.0737 -1.54794,-1.54795 0,-1.47424 -0.0737,-1.54795 -1.54796,-1.54795 -1.47423,0 -1.54795,0.0737 -1.54795,1.54795 0,1.47424 -0.0737,1.54795 -1.54795,1.54795 h -1.54795 v 3.0959 3.09591 h -1.54795 c -1.47424,0 -1.54795,-0.0737 -1.54795,-1.54796 0,-1.47423 -0.0737,-1.54795 -1.54795,-1.54795 h -1.54795 v 3.09591 3.0959 h 1.54795 c 1.47424,0 1.54795,0.0737 1.54795,1.54794 0,1.47424 0.0737,1.54796 1.54795,1.54796 1.47424,0 1.54795,0.0737 1.54795,1.54794 0,1.47424 -0.0737,1.54796 -1.54795,1.54796 -1.47424,0 -1.54795,0.0737 -1.54795,1.54795 v 1.54795 h -3.0959 -3.0959 v 1.54795 c 0,1.47424 -0.0737,1.54794 -1.54796,1.54794 -1.47423,0 -1.54794,-0.0737 -1.54794,-1.54794 0,-1.47423 0.0737,-1.54795 1.54794,-1.54795 1.47425,0 1.54796,-0.0737 1.54796,-1.54795 0,-1.47424 -0.0737,-1.54795 -1.54796,-1.54795 -1.47423,0 -1.54794,-0.0737 -1.54794,-1.54796 0,-1.47423 0.0737,-1.54794 1.54794,-1.54794 1.47425,0 1.54796,-0.0737 1.54796,-1.54796 0,-1.47423 -0.0737,-1.54794 -1.54796,-1.54794 -1.47423,0 -1.54794,-0.0737 -1.54794,-1.54795 v -1.54795 h -3.0959 -3.09591 v -1.54796 c 0,-1.47423 -0.0737,-1.54794 -1.54795,-1.54794 -1.47424,0 -1.54795,-0.0737 -1.54795,-1.54797 0,-1.47423 -0.0737,-1.54794 -1.54794,-1.54794 h -1.54796 v -4.64386 -4.64385 h -1.54795 c -1.47423,0 -1.54796,-0.0737 -1.54796,-1.54794 0,-1.47424 -0.0737,-1.54795 -1.54795,-1.54795 h -1.54795 v -3.09591 -3.0959 h 1.54795 1.54795 v 3.0959 3.09591 h 1.54796 c 1.47424,0 1.54795,0.0737 1.54795,1.54795 0,1.47424 0.0737,1.54794 1.54796,1.54794 h 1.54794 v -3.09589 -3.09591 h 1.54795 1.54795 v 3.09591 3.09589 h 1.54796 c 1.47423,0 1.54795,-0.0737 1.54795,-1.54794 v -1.54795 h 3.0959 3.0959 v -1.54795 c 0,-1.47425 -0.0737,-1.54796 -1.54796,-1.54796 -1.47423,0 -1.54794,-0.0737 -1.54794,-1.54794 0,-1.47424 -0.0737,-1.54796 -1.54795,-1.54796 -1.47425,0 -1.54795,-0.0737 -1.54795,-1.54795 0,-1.47423 -0.0737,-1.54795 -1.54795,-1.54795 -1.47425,0 -1.54796,0.0737 -1.54796,1.54795 0,1.47424 -0.0737,1.54795 -1.54795,1.54795 h -1.54795 v -3.0959 -3.0959 h -3.0959 -3.09591 v 1.54795 c 0,1.47424 -0.0737,1.54795 -1.54795,1.54795 h -1.54795 v -4.64385 -4.64385 h 7.73977 7.73975 v 1.54795 1.54794 h -3.09591 -3.0959 v 1.54796 1.54795 h 9.28771 9.2877 v 1.54795 c 0,1.47424 -0.0737,1.54795 -1.54795,1.54795 h -1.54795 v 3.0959 3.0959 h 1.54795 c 1.47424,0 1.54795,-0.0737 1.54795,-1.54794 v -1.54796 h 3.0959 3.0959 v 1.54796 c 0,1.47423 -0.0737,1.54794 -1.54795,1.54794 -1.47424,0 -1.54795,0.0737 -1.54795,1.54796 v 1.54795 h 4.64385 4.64386 v 1.54795 c 0,1.47424 -0.0737,1.54794 -1.54796,1.54794 h -1.54794 v 3.09591 3.0959 h 6.1918 6.1918 v 4.64384 4.64387 h 1.54795 1.54795 v -3.09591 -3.0959 h 1.54795 c 1.47424,0 1.54795,0.0737 1.54795,1.54794 0,1.47425 0.0737,1.54796 1.54796,1.54796 1.47423,0 1.54794,-0.0737 1.54794,-1.54796 0,-1.47423 0.0737,-1.54794 1.54796,-1.54794 1.47423,0 1.54795,-0.0737 1.54795,-1.54795 0,-1.47424 0.0737,-1.54795 1.54795,-1.54795 1.47424,0 1.54794,-0.0737 1.54794,-1.54796 v -1.54794 h -3.09589 -3.09591 v 1.54794 c 0,1.47425 -0.0737,1.54796 -1.54794,1.54796 -1.47424,0 -1.54796,-0.0737 -1.54796,-1.54796 v -1.54794 h -3.0959 -3.0959 v -1.54795 c 0,-1.47424 0.0737,-1.54796 1.54795,-1.54796 1.47424,0 1.54795,-0.0737 1.54795,-1.54794 v -1.54795 h -3.0959 -3.09591 v -1.54795 c 0,-1.47425 -0.0737,-1.54796 -1.54794,-1.54796 -1.47423,0 -1.54795,-0.0737 -1.54795,-1.54794 0,-1.47424 -0.0737,-1.54796 -1.54796,-1.54796 -1.47423,0 -1.54794,0.0737 -1.54794,1.54796 0,1.47423 -0.0737,1.54794 -1.54796,1.54794 h -1.54794 v -3.0959 -3.0959 h 1.54794 c 1.47424,0 1.54796,-0.0737 1.54796,-1.54795 0,-1.47423 -0.0737,-1.54795 -1.54796,-1.54795 -1.47423,0 -1.54794,-0.0737 -1.54794,-1.54795 0,-1.47424 -0.0737,-1.54796 -1.54796,-1.54796 h -1.54795 v 3.09591 3.0959 h -1.54795 -1.54795 v -3.0959 -3.09591 h -6.1918 -6.1918 v -1.54794 -1.54795 h 4.64384 4.64386 v -1.54796 c 0,-1.47423 -0.0737,-1.54794 -1.54795,-1.54794 h -1.54795 v -3.09591 -3.095899 h 1.54795 c 1.47424,0 1.54795,-0.07371 1.54795,-1.547951 0,-1.474238 -0.0737,-1.54795 -1.54795,-1.54795 -1.47424,0 -1.54795,-0.07371 -1.54795,-1.54795 v -1.547954 h 4.64385 4.64385 v 1.547954 c 0,1.474237 -0.0737,1.54795 -1.54795,1.54795 h -1.54795 v 3.095901 3.095899 h 1.54795 c 1.47423,0 1.54795,-0.0737 1.54795,-1.54795 v -1.547949 h 3.09591 3.0959 v 3.095899 3.09591 h -1.54796 -1.54794 v 3.0959 3.09589 h 6.1918 6.1918 v -4.64385 -4.64385 h 1.54795 c 1.47424,0 1.54795,-0.0737 1.54795,-1.54795 v -1.547949 h -3.0959 -3.09591 V 97.18424 c 0,-1.474238 -0.0737,-1.54795 -1.54794,-1.54795 -1.47423,0 -1.54795,-0.07371 -1.54795,-1.54795 0,-1.474242 -0.0737,-1.547954 -1.54796,-1.547954 -1.47423,0 -1.54794,0.07371 -1.54794,1.547954 0,1.474237 -0.0737,1.54795 -1.54796,1.54795 h -1.54794 v -3.095904 -3.095897 h 1.54794 c 1.47424,0 1.54796,-0.07371 1.54796,-1.547953 0,-1.474237 -0.0737,-1.547948 -1.54796,-1.547948 -1.47423,0 -1.54794,-0.07371 -1.54794,-1.547953 v -1.54795 h 6.1918 6.1918 v 1.54795 1.547953 h 3.0959 3.0959 v 1.547948 1.547953 h -3.0959 -3.0959 v 3.095897 3.095904 h 1.54795 c 1.47424,0 1.54795,0.07371 1.54795,1.54795 0,1.474241 0.0737,1.547951 1.54795,1.547951 h 1.54795 V 95.63629 92.540386 h 1.54796 1.54794 v -3.095897 -3.095901 h 3.09591 3.09589 v -1.547953 c 0,-1.474237 0.0737,-1.54795 1.54796,-1.54795 1.47424,0 1.54795,0.07371 1.54795,1.54795 v 1.547953 h 4.64385 4.64387 v 1.547948 c 0,1.474239 -0.0737,1.547953 -1.54796,1.547953 -1.47425,0 -1.54796,0.07371 -1.54796,1.54795 0,1.474237 -0.0737,1.547947 -1.54795,1.547947 h -1.54795 v 6.191805 6.191809 h 1.54795 1.54795 v -3.09591 -3.095899 h 1.54796 1.54796 v 3.095899 3.09591 h -1.54796 c -1.47425,0 -1.54796,0.0737 -1.54796,1.54794 v 1.54796 h 3.09592 3.09588 v 1.54795 c 0,1.47424 0.0737,1.54794 1.54796,1.54794 1.47424,0 1.54795,-0.0737 1.54795,-1.54794 0,-1.47424 0.0737,-1.54795 1.54796,-1.54795 h 1.54795 v 3.09589 3.09591 h 1.54793 1.54796 v -3.09591 -3.09589 h 1.54793 c 1.47427,0 1.54797,0.0737 1.54797,1.54795 0,1.47424 0.0737,1.54794 1.54797,1.54794 1.47421,0 1.54793,-0.0737 1.54793,-1.54794 0,-1.47424 0.0737,-1.54795 1.54795,-1.54795 1.47421,0 1.54795,0.0737 1.54795,1.54795 0,1.47424 -0.0737,1.54794 -1.54795,1.54794 -1.47422,0 -1.54795,0.0737 -1.54795,1.54796 0,1.47423 0.0737,1.54795 1.54795,1.54795 1.47421,0 1.54795,0.0737 1.54795,1.54795 0,1.47424 0.0737,1.54795 1.54794,1.54795 1.47427,0 1.54798,0.0737 1.54798,1.54795 0,1.47424 -0.0737,1.54795 -1.54798,1.54795 -1.47422,0 -1.54794,0.0737 -1.54794,1.54796 0,1.47423 -0.0737,1.54794 -1.54795,1.54794 -1.47422,0 -1.54795,0.0737 -1.54795,1.54796 0,1.47423 0.0737,1.54795 1.54795,1.54795 1.47421,0 1.54795,0.0737 1.54795,1.54795 0,1.47424 0.0737,1.54794 1.54794,1.54794 1.47427,0 1.54798,0.0737 1.54798,1.54796 0,1.47424 -0.0737,1.54795 -1.54798,1.54795 -1.47422,0 -1.54794,0.0737 -1.54794,1.54794 0,1.47425 -0.0737,1.54796 -1.54795,1.54796 -1.47422,0 -1.54795,0.0737 -1.54795,1.54795 0,1.47424 -0.0737,1.54795 -1.54793,1.54795 -1.47428,0 -1.54797,0.0737 -1.54797,1.54794 v 1.54796 h -4.64386 -4.64384 v 1.54795 c 0,1.47424 0.0737,1.54796 1.54796,1.54796 1.47421,0 1.54795,0.0737 1.54795,1.54795 0,1.47423 -0.0737,1.54795 -1.54795,1.54795 -1.47424,0 -1.54796,0.0737 -1.54796,1.54794 0,1.47424 -0.0737,1.54796 -1.54795,1.54796 -1.47425,0 -1.54796,0.0737 -1.54796,1.54794 0,1.47424 0.0737,1.54796 1.54796,1.54796 1.47424,0 1.54795,0.0737 1.54795,1.54795 v 1.54795 h 3.09591 3.09589 v -1.54795 c 0,-1.47424 -0.0737,-1.54795 -1.54796,-1.54795 -1.47421,0 -1.54793,-0.0737 -1.54793,-1.54796 0,-1.47423 0.0737,-1.54794 1.54793,-1.54794 1.47424,0 1.54796,0.0737 1.54796,1.54794 0,1.47424 0.0737,1.54796 1.54793,1.54796 h 1.54797 v 3.0959 3.09589 h 1.54797 c 1.47421,0 1.54793,0.0737 1.54793,1.54796 0,1.47424 0.0737,1.54795 1.54795,1.54795 1.47421,0 1.54795,0.0737 1.54795,1.54796 0,1.47423 0.0737,1.54794 1.54794,1.54794 h 1.54798 v 3.0959 3.0959 h -1.54798 c -1.47422,0 -1.54794,0.0737 -1.54794,1.54796 v 1.54795 h -4.64383 -4.64387 v 1.54795 1.54795 h 6.1918 6.19182 v 1.54795 c 0,1.47424 -0.0737,1.54795 -1.54798,1.54795 -1.47422,0 -1.54794,0.0737 -1.54794,1.54795 0,1.47424 -0.0737,1.54795 -1.54795,1.54795 -1.47422,0 -1.54795,-0.0737 -1.54795,-1.54795 0,-1.47423 -0.0737,-1.54795 -1.54793,-1.54795 -1.47428,0 -1.54797,0.0737 -1.54797,1.54795 0,1.47424 -0.0737,1.54795 -1.54797,1.54795 -1.47422,0 -1.54793,-0.0737 -1.54793,-1.54795 v -1.54795 h -3.09589 -3.09591 v 1.54795 c 0,1.47424 -0.0737,1.54795 -1.54795,1.54795 -1.47425,0 -1.54796,-0.0737 -1.54796,-1.54795 0,-1.47423 0.0737,-1.54795 1.54796,-1.54795 h 1.54795 v -3.0959 -3.0959 h -1.54795 c -1.47425,0 -1.54796,0.0737 -1.54796,1.54795 v 1.54795 h -3.09588 -3.09592 v 3.0959 3.0959 h -3.0959 -3.0959 v -1.54795 c 0,-1.47423 0.0737,-1.54795 1.54795,-1.54795 1.47423,0 1.54795,-0.0737 1.54795,-1.54795 0,-1.47424 -0.0737,-1.54795 -1.54795,-1.54795 -1.47424,0 -1.54795,-0.0737 -1.54795,-1.54795 v -1.54795 h -4.64385 -4.64386 v -1.54795 c 0,-1.47424 0.0737,-1.54796 1.54796,-1.54796 1.47423,0 1.54795,-0.0737 1.54795,-1.54794 v -1.54796 h -4.64385 -4.64386 v 1.54796 c 0,1.47424 -0.0737,1.54794 -1.54795,1.54794 h -1.54795 v 3.09591 3.0959 h 1.54795 c 1.47424,0 1.54795,-0.0737 1.54795,-1.54795 0,-1.47424 0.0737,-1.54795 1.54795,-1.54795 1.47424,0 1.54795,0.0737 1.54795,1.54795 0,1.47424 -0.0737,1.54795 -1.54795,1.54795 -1.47423,0 -1.54795,0.0737 -1.54795,1.54795 0,1.47424 -0.0737,1.54795 -1.54795,1.54795 -1.47424,0 -1.54795,0.0737 -1.54795,1.54795 0,1.47424 -0.0737,1.54795 -1.54795,1.54795 -1.47424,0 -1.54796,-0.0737 -1.54796,-1.54795 z m 3.09591,-3.0959 c 0,-1.47424 -0.0737,-1.54795 -1.54795,-1.54795 -1.47424,0 -1.54796,0.0737 -1.54796,1.54795 0,1.47424 0.0737,1.54795 1.54796,1.54795 1.47423,0 1.54795,-0.0737 1.54795,-1.54795 z m 27.86313,-6.1918 c 0,-1.47424 -0.0737,-1.54796 -1.54796,-1.54796 -1.47425,0 -1.54796,-0.0737 -1.54796,-1.54794 0,-1.47424 -0.0737,-1.54796 -1.54795,-1.54796 -1.47424,0 -1.54795,0.0737 -1.54795,1.54796 0,1.47424 -0.0737,1.54794 -1.54795,1.54794 -1.47424,0 -1.54795,0.0737 -1.54795,1.54796 v 1.54795 h 4.64385 4.64387 z m 12.38359,0 v -1.54796 h -3.09589 -3.09591 v 1.54796 1.54795 h 3.09591 3.09589 z m 9.2877,-4.64386 v -3.0959 h -1.54795 c -1.47422,0 -1.54795,-0.0737 -1.54795,-1.54794 0,-1.47424 -0.0737,-1.54796 -1.54793,-1.54796 -1.47428,0 -1.54797,-0.0737 -1.54797,-1.54795 0,-1.47423 -0.0737,-1.54796 -1.54797,-1.54796 h -1.54793 v 3.09591 3.0959 h 1.54793 1.54797 v 3.0959 3.0959 h 3.0959 3.0959 z m -49.53442,-1.54794 c 0,-1.47424 0.0737,-1.54796 1.54795,-1.54796 1.47424,0 1.54795,-0.0737 1.54795,-1.54794 0,-1.47424 0.0737,-1.54796 1.54795,-1.54796 1.47424,0 1.54795,-0.0737 1.54795,-1.54795 v -1.54796 h 6.19181 6.1918 v -1.54794 c 0,-1.47423 0.0737,-1.54795 1.54795,-1.54795 1.47423,0 1.54795,0.0737 1.54795,1.54795 0,1.47424 0.0737,1.54794 1.54795,1.54794 1.47424,0 1.54795,-0.0737 1.54795,-1.54794 v -1.54795 h 3.09592 3.09588 v -1.54795 c 0,-1.47424 -0.0737,-1.54795 -1.54796,-1.54795 h -1.54792 v -3.0959 -3.0959 h -1.54796 c -1.47425,0 -1.54796,-0.0737 -1.54796,-1.54795 v -1.54795 h 3.09592 3.09588 v -1.54796 c 0,-1.47423 0.0737,-1.54795 1.54796,-1.54795 1.47424,0 1.54795,-0.0737 1.54795,-1.54796 0,-1.47423 -0.0737,-1.54794 -1.54795,-1.54794 -1.47425,0 -1.54796,0.0737 -1.54796,1.54794 0,1.47425 -0.0737,1.54796 -1.54796,1.54796 h -1.54792 v -3.0959 -3.0959 h 3.09588 3.09591 v -1.54796 c 0,-1.47423 0.0737,-1.54794 1.54796,-1.54794 1.47421,0 1.54795,0.0737 1.54795,1.54794 0,1.47425 0.0737,1.54796 1.54793,1.54796 1.47424,0 1.54796,0.0737 1.54796,1.54795 0,1.47424 0.0737,1.54795 1.54793,1.54795 1.47427,0 1.54797,-0.0737 1.54797,-1.54795 0,-1.47424 0.0737,-1.54795 1.54797,-1.54795 1.47421,0 1.54793,-0.0737 1.54793,-1.54796 0,-1.47423 -0.0737,-1.54794 -1.54793,-1.54794 -1.47428,0 -1.54797,-0.0737 -1.54797,-1.54795 0,-1.47424 0.0737,-1.54796 1.54797,-1.54796 1.47421,0 1.54793,-0.0737 1.54793,-1.54794 0,-1.47424 -0.0737,-1.54795 -1.54793,-1.54795 -1.47428,0 -1.54797,0.0737 -1.54797,1.54795 v 1.54794 h -3.0959 -3.09589 v -1.54794 c 0,-1.47424 0.0737,-1.54795 1.54793,-1.54795 1.47424,0 1.54796,-0.0737 1.54796,-1.54795 0,-1.47425 0.0737,-1.54796 1.54793,-1.54796 h 1.54797 v -3.0959 -3.0959 h 1.54797 c 1.47421,0 1.54793,-0.0737 1.54793,-1.54795 0,-1.47423 -0.0737,-1.54795 -1.54793,-1.54795 -1.47428,0 -1.54797,0.0737 -1.54797,1.54795 v 1.54795 h -4.64386 -4.64384 v -1.54795 c 0,-1.47423 -0.0737,-1.54795 -1.54795,-1.54795 -1.47425,0 -1.54796,-0.0737 -1.54796,-1.54795 0,-1.47424 -0.0737,-1.54796 -1.54796,-1.54796 -1.47421,0 -1.54792,0.0737 -1.54792,1.54796 v 1.54795 h -3.09592 -3.0959 v 1.54795 c 0,1.47424 -0.0737,1.54795 -1.54795,1.54795 -1.47424,0 -1.54795,-0.0737 -1.54795,-1.54795 v -1.54795 h -3.09591 -3.09589 v 3.0959 3.0959 h -1.54795 -1.54796 v 3.0959 3.09591 h -1.54794 -1.54796 v -3.09591 -3.0959 h -1.54795 c -1.47423,0 -1.54795,-0.0737 -1.54795,-1.54795 0,-1.47423 -0.0737,-1.54795 -1.54795,-1.54795 h -1.54795 v 3.0959 3.0959 h 1.54795 c 1.47424,0 1.54795,0.0737 1.54795,1.54796 0,1.47423 0.0737,1.54795 1.54795,1.54795 1.47424,0 1.54795,0.0737 1.54795,1.54795 0,1.47424 0.0737,1.54794 1.54796,1.54794 1.47423,0 1.54794,-0.0737 1.54794,-1.54794 0,-1.47424 0.0737,-1.54795 1.54796,-1.54795 1.47423,0 1.54795,0.0737 1.54795,1.54795 v 1.54794 h 3.09589 3.09591 v 1.54796 c 0,1.47424 0.0737,1.54795 1.54795,1.54795 1.47423,0 1.54795,0.0737 1.54795,1.54794 0,1.47425 -0.0737,1.54796 -1.54795,1.54796 -1.47424,0 -1.54795,0.0737 -1.54795,1.54795 v 1.54795 h -3.09591 -3.09589 v 1.54794 1.54796 h 3.09589 3.09591 v -1.54796 c 0,-1.47423 0.0737,-1.54794 1.54795,-1.54794 1.47423,0 1.54795,0.0737 1.54795,1.54794 0,1.47425 0.0737,1.54796 1.54795,1.54796 1.47424,0 1.54795,0.0737 1.54795,1.54795 v 1.54796 h -4.64385 -4.64386 v 1.54795 c 0,1.47423 0.0737,1.54795 1.54796,1.54795 1.47424,0 1.54795,0.0737 1.54795,1.54794 v 1.54796 h -3.09591 -3.09589 v 1.54794 c 0,1.47424 0.0737,1.54796 1.54795,1.54796 1.47424,0 1.54794,0.0737 1.54794,1.54795 v 1.54795 h -3.09589 -3.09591 v -3.0959 -3.0959 h -1.54794 c -1.47424,0 -1.54796,0.0737 -1.54796,1.54794 0,1.47424 -0.0737,1.54796 -1.54795,1.54796 -1.47423,0 -1.54795,0.0737 -1.54795,1.54795 0,1.47423 -0.0737,1.54795 -1.54795,1.54795 -1.47424,0 -1.54795,0.0737 -1.54795,1.54795 0,1.47424 0.0737,1.54794 1.54795,1.54794 1.47424,0 1.54795,0.0737 1.54795,1.54796 v 1.54795 h -3.0959 -3.09591 v 1.54796 c 0,1.47423 -0.0737,1.54794 -1.54794,1.54794 -1.47423,0 -1.54795,0.0737 -1.54795,1.54796 v 1.54794 h 3.09589 3.09591 z m 21.67131,-12.38361 c 0,-1.47424 -0.0737,-1.54795 -1.54795,-1.54795 -1.47424,0 -1.54795,-0.0737 -1.54795,-1.54796 0,-1.47423 0.0737,-1.54794 1.54795,-1.54794 1.47423,0 1.54795,0.0737 1.54795,1.54794 0,1.47424 0.0737,1.54796 1.54795,1.54796 1.47424,0 1.54795,0.0737 1.54795,1.54795 0,1.47423 -0.0737,1.54795 -1.54795,1.54795 -1.47424,0 -1.54795,-0.0737 -1.54795,-1.54795 z m 3.0959,-21.67132 c 0,-1.47423 -0.0737,-1.54794 -1.54795,-1.54794 -1.47424,0 -1.54795,-0.0737 -1.54795,-1.54795 0,-1.47424 -0.0737,-1.54796 -1.54795,-1.54796 -1.47424,0 -1.54795,-0.0737 -1.54795,-1.54794 0,-1.47424 -0.0737,-1.54795 -1.54795,-1.54795 -1.47424,0 -1.54796,-0.0737 -1.54796,-1.54795 0,-1.47425 -0.0737,-1.54796 -1.54794,-1.54796 -1.47425,0 -1.54795,-0.0737 -1.54795,-1.54794 0,-1.47424 0.0737,-1.54796 1.54795,-1.54796 1.47424,0 1.54794,0.0737 1.54794,1.54796 0,1.47423 0.0737,1.54794 1.54796,1.54794 1.47424,0 1.54795,-0.0737 1.54795,-1.54794 0,-1.47424 0.0737,-1.54796 1.54795,-1.54796 1.47423,0 1.54795,-0.0737 1.54795,-1.54795 0,-1.47423 0.0737,-1.54795 1.54795,-1.54795 1.47424,0 1.54795,0.0737 1.54795,1.54795 0,1.47424 -0.0737,1.54795 -1.54795,1.54795 -1.47424,0 -1.54795,0.0737 -1.54795,1.54796 0,1.47423 0.0737,1.54794 1.54795,1.54794 1.47424,0 1.54795,0.0737 1.54795,1.54796 v 1.54795 h 3.09592 3.09588 v -1.54795 c 0,-1.47425 -0.0737,-1.54796 -1.54796,-1.54796 -1.47421,0 -1.54792,-0.0737 -1.54792,-1.54794 0,-1.47424 0.0737,-1.54796 1.54792,-1.54796 1.47425,0 1.54796,-0.0737 1.54796,-1.54795 0,-1.47423 0.0737,-1.54795 1.54796,-1.54795 h 1.54795 v 4.64386 4.64385 h -1.54795 c -1.47425,0 -1.54796,0.0737 -1.54796,1.54795 0,1.47424 0.0737,1.54794 1.54796,1.54794 1.47424,0 1.54795,0.0737 1.54795,1.54796 0,1.47424 -0.0737,1.54795 -1.54795,1.54795 -1.47425,0 -1.54796,-0.0737 -1.54796,-1.54795 v -1.54796 h -3.09588 -3.09592 v 1.54796 c 0,1.47424 0.0737,1.54795 1.54796,1.54795 1.47422,0 1.54796,0.0737 1.54796,1.54794 0,1.47425 -0.0737,1.54796 -1.54796,1.54796 -1.47425,0 -1.54796,-0.0737 -1.54796,-1.54796 z m -3.0959,-9.28769 c 0,-1.47425 -0.0737,-1.54796 -1.54795,-1.54796 -1.47424,0 -1.54795,0.0737 -1.54795,1.54796 0,1.47423 0.0737,1.54795 1.54795,1.54795 1.47423,0 1.54795,-0.0737 1.54795,-1.54795 z m 18.57541,9.28769 c 0,-1.47423 0.0737,-1.54794 1.54793,-1.54794 1.47427,0 1.54797,0.0737 1.54797,1.54794 0,1.47425 -0.0737,1.54796 -1.54797,1.54796 -1.47422,0 -1.54793,-0.0737 -1.54793,-1.54796 z m -3.09589,30.95903 v -4.64387 h -4.64386 -4.64384 v 4.64387 4.64384 h 4.64384 4.64386 z m -6.19182,0 c 0,-1.47424 0.0737,-1.54796 1.54796,-1.54796 1.47424,0 1.54795,0.0737 1.54795,1.54796 0,1.47423 -0.0737,1.54794 -1.54795,1.54794 -1.47425,0 -1.54796,-0.0737 -1.54796,-1.54794 z m -12.3836,0 v -1.54796 h -3.09591 -3.09589 v 1.54796 1.54794 h 3.09589 3.09591 z m 6.1918,0 c 0,-1.47424 -0.0737,-1.54796 -1.54795,-1.54796 -1.47424,0 -1.54795,0.0737 -1.54795,1.54796 0,1.47423 0.0737,1.54794 1.54795,1.54794 1.47424,0 1.54795,-0.0737 1.54795,-1.54794 z m -46.43852,-12.38362 c 0,-1.47423 -0.0737,-1.54794 -1.54795,-1.54794 -1.47424,0 -1.54795,0.0737 -1.54795,1.54794 0,1.47424 0.0737,1.54796 1.54795,1.54796 1.47424,0 1.54795,-0.0737 1.54795,-1.54796 z m 34.05492,-6.19179 v -1.54795 h -3.09591 -3.0959 v 1.54795 1.54795 h 3.0959 3.09591 z m -40.24672,-3.09591 c 0,-1.47423 -0.0737,-1.54795 -1.54796,-1.54795 -1.47423,0 -1.54794,0.0737 -1.54794,1.54795 0,1.47424 0.0737,1.54796 1.54794,1.54796 1.47425,0 1.54796,-0.0737 1.54796,-1.54796 z m 24.7672,0 c 0,-1.47423 -0.0737,-1.54795 -1.54794,-1.54795 -1.47423,0 -1.54795,0.0737 -1.54795,1.54795 0,1.47424 0.0737,1.54796 1.54795,1.54796 1.47423,0 1.54794,-0.0737 1.54794,-1.54796 z m -30.959,-3.09591 c 0,-1.47423 -0.0737,-1.54794 -1.54795,-1.54794 -1.47425,0 -1.54796,0.0737 -1.54796,1.54794 0,1.47425 0.0737,1.54796 1.54796,1.54796 1.47423,0 1.54795,-0.0737 1.54795,-1.54796 z m 6.1918,-3.09589 c 0,-1.47424 -0.0737,-1.54795 -1.54796,-1.54795 -1.47423,0 -1.54794,0.0737 -1.54794,1.54795 0,1.47424 0.0737,1.54795 1.54794,1.54795 1.47425,0 1.54796,-0.0737 1.54796,-1.54795 z m 6.1918,0 c 0,-1.47424 0.0737,-1.54795 1.54795,-1.54795 h 1.54795 v -4.64385 -4.64385 h -1.54795 -1.54795 v 4.64385 4.64385 h -1.54795 c -1.47424,0 -1.54795,0.0737 -1.54795,1.54795 0,1.47424 0.0737,1.54795 1.54795,1.54795 1.47424,0 1.54795,-0.0737 1.54795,-1.54795 z m -15.47951,-6.1918 c 0,-1.47424 -0.0737,-1.54796 -1.54795,-1.54796 -1.47424,0 -1.54795,0.0737 -1.54795,1.54796 0,1.47424 0.0737,1.54795 1.54795,1.54795 1.47424,0 1.54795,-0.0737 1.54795,-1.54795 z m 12.38361,-1.54796 v -3.09589 h -1.54796 c -1.47423,0 -1.54794,0.0737 -1.54794,1.54795 0,1.47424 -0.0737,1.54794 -1.54796,1.54794 -1.47423,0 -1.54794,0.0737 -1.54794,1.54796 v 1.54795 h 3.0959 3.0959 z m -3.0959,-10.83565 c 0,-1.47423 -0.0737,-1.54795 -1.54796,-1.54795 -1.47423,0 -1.54794,0.0737 -1.54794,1.54795 0,1.47424 0.0737,1.54795 1.54794,1.54795 1.47425,0 1.54796,-0.0737 1.54796,-1.54795 z m 24.7672,0 c 0,-1.47423 -0.0737,-1.54795 -1.54794,-1.54795 -1.47423,0 -1.54795,0.0737 -1.54795,1.54795 0,1.47424 0.0737,1.54795 1.54795,1.54795 1.47423,0 1.54794,-0.0737 1.54794,-1.54795 z m 12.38361,-4.64385 v -3.09591 h 1.54796 c 1.47423,0 1.54795,-0.0737 1.54795,-1.54794 v -1.54795 h -3.09591 -3.0959 v -3.0959 -3.09591 h 1.54796 c 1.47423,0 1.54794,0.0737 1.54794,1.54796 0,1.47423 0.0737,1.54795 1.54796,1.54795 h 1.54795 v -4.64386 -4.64385 h 1.54795 c 1.47424,0 1.54794,-0.07371 1.54794,-1.54795 v -1.547954 h -3.09589 -3.09591 v 3.095904 3.095901 h -1.54794 c -1.47424,0 -1.54796,0.07371 -1.54796,1.547949 0,1.47424 -0.0737,1.54795 -1.54795,1.54795 h -1.54795 v 4.64385 4.64385 h -1.54795 c -1.47424,0 -1.54795,0.0737 -1.54795,1.54796 v 1.54795 h 3.0959 3.0959 v 1.54795 c 0,1.47424 0.0737,1.54795 1.54796,1.54795 h 1.54794 z m -24.76721,-4.64385 c 0,-1.47424 -0.0737,-1.54795 -1.54795,-1.54795 -1.47424,0 -1.54795,0.0737 -1.54795,1.54795 0,1.47424 0.0737,1.54794 1.54795,1.54794 1.47423,0 1.54795,-0.0737 1.54795,-1.54794 z m 40.24672,0 c 0,-1.47424 -0.0737,-1.54795 -1.54795,-1.54795 -1.47424,0 -1.54795,-0.0737 -1.54795,-1.54796 0,-1.47423 -0.0737,-1.54794 -1.54795,-1.54794 h -1.54795 v -3.09591 -3.095899 h -1.54795 -1.54796 v 3.095899 3.09591 h 1.54796 1.54795 v 3.0959 3.09589 h 3.0959 3.0959 z m -43.34262,-6.1918 c 0,-1.47424 -0.0737,-1.54796 -1.54795,-1.54796 -1.47424,0 -1.54795,0.0737 -1.54795,1.54796 0,1.47423 0.0737,1.54795 1.54795,1.54795 1.47424,0 1.54795,-0.0737 1.54795,-1.54795 z m 6.19181,0 c 0,-1.47424 -0.0737,-1.54796 -1.54796,-1.54796 -1.47423,0 -1.54795,0.0737 -1.54795,1.54796 0,1.47423 0.0737,1.54795 1.54795,1.54795 1.47423,0 1.54796,-0.0737 1.54796,-1.54795 z m 9.28769,-12.383611 c 0,-1.474239 -0.0737,-1.54795 -1.54794,-1.54795 -1.47423,0 -1.54795,0.07371 -1.54795,1.54795 0,1.474237 0.0737,1.547947 1.54795,1.547947 1.47423,0 1.54794,-0.07371 1.54794,-1.547947 z m 24.76722,0 c 0,-1.474239 -0.0737,-1.54795 -1.54795,-1.54795 -1.47424,0 -1.54795,-0.07371 -1.54795,-1.547953 0,-1.474237 -0.0737,-1.547948 -1.54795,-1.547948 -1.47424,0 -1.54796,0.07371 -1.54796,1.547948 0,1.474239 0.0737,1.547953 1.54796,1.547953 1.47424,0 1.54795,0.07371 1.54795,1.54795 0,1.474237 0.0737,1.547947 1.54795,1.547947 1.47423,0 1.54795,-0.07371 1.54795,-1.547947 z m -9.2877,92.877041 c 0,-1.47423 -0.0737,-1.54795 -1.54795,-1.54795 -1.47425,0 -1.54796,-0.0737 -1.54796,-1.54795 v -1.54795 h 3.09591 3.09589 v 3.0959 3.0959 h -1.54794 c -1.47425,0 -1.54795,-0.0737 -1.54795,-1.54795 z m -61.91804,-35.60286 v -12.38361 h 1.54795 1.54795 v 12.38361 12.38359 h -1.54795 -1.54795 z m 12.38361,10.83565 c 0,-1.47423 0.0737,-1.54795 1.54796,-1.54795 1.47423,0 1.54795,0.0737 1.54795,1.54795 0,1.47424 -0.0737,1.54794 -1.54795,1.54794 -1.47425,0 -1.54796,-0.0737 -1.54796,-1.54794 z m 83.58934,-4.64385 v -3.0959 h -1.54793 c -1.47428,0 -1.54797,-0.0737 -1.54797,-1.54796 0,-1.47423 0.0737,-1.54794 1.54797,-1.54794 1.47421,0 1.54793,-0.0737 1.54793,-1.54795 0,-1.47424 0.0737,-1.54795 1.54795,-1.54795 h 1.54795 v -3.09591 -3.0959 h 1.54794 1.54798 v 3.0959 3.09591 h -1.54798 -1.54794 v 4.64384 4.64386 h 1.54794 c 1.47427,0 1.54798,0.0737 1.54798,1.54795 v 1.54795 h -3.09592 -3.0959 z m -89.78114,-4.64386 v -4.64384 h 1.54796 1.54794 v 4.64384 4.64386 h -1.54794 -1.54796 z m 6.1918,0 c 0,-1.47423 0.0737,-1.54794 1.54796,-1.54794 1.47423,0 1.54795,0.0737 1.54795,1.54794 0,1.47424 -0.0737,1.54796 -1.54795,1.54796 -1.47425,0 -1.54796,-0.0737 -1.54796,-1.54796 z m 30.95902,-18.5754 c 0,-1.47424 0.0737,-1.54796 1.54795,-1.54796 1.47423,0 1.54794,0.0737 1.54794,1.54796 0,1.47424 -0.0737,1.54795 -1.54794,1.54795 -1.47423,0 -1.54795,-0.0737 -1.54795,-1.54795 z m 0,-26.31516 v -3.09591 h 1.54795 1.54794 v 3.09591 3.0959 h -1.54794 -1.54795 z M 218.08155,94.08834 V 83.252685 h 10.61452 10.61452 V 94.08834 104.924 h -10.61452 -10.61452 z m 18.57542,0 v -7.739752 h -7.9609 -7.9609 v 7.739752 7.73975 h 7.9609 7.9609 z m -12.82589,0 v -4.643851 h 4.64385 4.64386 v 4.643851 4.643851 h -4.64386 -4.64385 z m 74.7439,0 V 83.252685 h 10.61452 10.61454 V 94.08834 104.924 H 309.1895 298.57498 Z m 18.57541,0 v -7.739752 h -7.96089 -7.96088 v 7.739752 7.73975 h 7.96088 7.96089 z m -12.82586,0 v -4.643851 h 4.64382 4.64387 v 4.643851 4.643851 h -4.64387 -4.64382 z m -61.91804,-6.191804 c 0,-1.474237 0.0737,-1.547948 1.54795,-1.547948 1.47424,0 1.54795,0.07371 1.54795,1.547948 0,1.474239 -0.0737,1.547953 -1.54795,1.547953 -1.47424,0 -1.54795,-0.07371 -1.54795,-1.547953 z m 6.1918,-1.547948 v -3.095903 h 1.54795 1.54795 v 3.095903 3.095901 h -1.54795 -1.54795 z"
     id="path881"
     inkscape:connector-curvature="0" />
</svg>
